<?xml version="1.0" encoding="utf-8"?>
<!-- Generator: Adobe Illustrator 19.2.1, SVG Export Plug-In . SVG Version: 6.00 Build 0)  -->
<svg version="1.1" id="layer" xmlns="http://www.w3.org/2000/svg" xmlns:xlink="http://www.w3.org/1999/xlink" x="0px" y="0px"
	 viewBox="0 0 652 652" style="enable-background:new 0 0 652 652;" xml:space="preserve">
<style type="text/css">
	.st0{fill:none;stroke:#3CABFF;stroke-width:14.6879;stroke-linejoin:round;stroke-miterlimit:10;}
	.st1{fill:none;stroke:#474758;stroke-width:14.6879;stroke-linecap:round;stroke-linejoin:round;stroke-miterlimit:10;}
	.st2{fill:none;stroke:#3CABFF;stroke-width:14.6879;stroke-linecap:round;stroke-linejoin:round;stroke-miterlimit:10;}
	.st3{fill:#474758;}
</style>
<path class="st0" d="M20.6,341.5h82.3"/>
<path class="st1" d="M620.5,341.5H392.9c-113.1,0-94.7-151.3-176.3-151.3s-69.8,145.4-177,151.3H20.6"/>
<path class="st2" d="M103.5,341.5h99.9c25,0,44.1,0,75.6-31.6s38.2-88.1,63.2-88.1s31.6,63.2,56.5,63.2 M620.5,341.5h-25
	c-25,0-44.1,0-75.6-31.6s-38.2-88.1-63.2-88.1s-31.6,63.2-56.5,63.2"/>
<path class="st3" d="M55.1,453.9h6.6l6.6-14.7h33l5.9,14.7h6.6l-25.7-61h-6.6L55.1,453.9z M84.4,399.5L99.1,434H69.8L84.4,399.5z
	 M186.5,453.9h6.6v-61h-5.9l-26.4,32.3l-27.2-32.3h-5.9v60.2h6.6v-50.7l25,30.1h1.5l25-30.1C186.5,402.4,186.5,453.9,186.5,453.9z
	 M224,423.7c0-9.5,6.6-16.9,16.9-16.9c7.3,0,12.5,2.9,16.2,5.9l6.6-11c-6.6-5.9-14-8.8-24.2-8.8c-18.4,0-31.6,13.2-31.6,30.8
	c0,17.6,14,30.8,31.6,30.8c9.5,0,17.6-2.9,24.2-8.8l-5.9-11c-3.7,2.9-8.8,5.9-16.2,5.9C231.3,440.6,224,432.6,224,423.7z
	 M321.7,453.9h15.4v-61h-15.4v23.5H293v-23.5h-15.4v60.2H293v-23.5h28.6V453.9z M347.4,453.9h15.4l4.4-11h25l3.7,11h15.4l-22.8-60.2
	h-17.6C370.9,392.9,347.4,453.9,347.4,453.9z M379.7,408.3l8.8,23.5h-17.6C370.1,431.8,379.7,408.3,379.7,408.3z M421.5,453.9H437
	v-21.3h6.6l18.4,21.3h16.2v-2.9l-17.6-19.8c8.1-2.2,14.7-8.8,14.7-18.4c0-13.2-9.5-20.6-23.5-20.6h-29.4
	C422.3,392.2,421.5,453.9,421.5,453.9z M450.2,406.1c5.1,0,8.1,2.2,8.1,7.3c0,4.4-2.9,7.3-8.1,7.3H437v-15.4L450.2,406.1z
	 M534.6,406.1v-13.2h-51.4v13.2h18.4v47.7H517v-47.7H534.6z M544.9,449.5c3.7,2.2,13.2,5.1,22,5.1c15.4,0,25-8.1,25-19.8
	c0-8.1-5.1-14-16.2-16.9l-10.3-2.9c-3.7-1.5-5.9-2.2-5.9-5.1s2.2-5.1,8.1-5.1c6.6,0,13.2,2.2,18.4,5.1l4.4-12.5
	c-5.1-2.2-13.2-4.4-22-4.4c-16.2,0-24.2,8.1-24.2,18.4c0,8.1,5.1,14,15.4,16.2l10.3,2.9c5.1,1.5,6.6,2.2,6.6,5.9s-3.7,5.9-9.5,5.9
	c-7.3,0-14.7-2.9-19.1-6.6C547.8,435.5,544.9,449.5,544.9,449.5z"/>
</svg>
